<svg xmlns="http://www.w3.org/2000/svg" width="100" height="130.502" viewBox="0 0 100 130.502">
  <g id="Group_10" data-name="Group 10" transform="translate(-1916.781 -829.769)">
    <path id="Path_29" data-name="Path 29" d="M1953.9,957.621a3.83,3.83,0,0,0,3,1.441h47.766a3.823,3.823,0,0,0,3.545-2.38c.073-.18,1-2.6,1.347-3.576.994-2.764,1.989-5.773,2.917-8.929a119.33,119.33,0,0,0,3.405-14.657c1.616-10.1,1.166-18.173-2.216-23.711-3.516-5.759-9.795-9.9-17.988-12.84a77.737,77.737,0,0,0-13.292-3.385c-1.577-.265-2.557-.38-2.557-.38V854.58a11.432,11.432,0,0,0-11.464-11.377h-1.911a11.437,11.437,0,0,0-11.464,11.4l.007,60.011-12.726-11.07c-8.173-7.109-19.544-5.221-24.924,4.14a3.828,3.828,0,0,0,.256,4.357Zm-27.327-49.158c3.12-2.374,7.231-2.188,10.662.795l19.057,16.576a3.824,3.824,0,0,0,6.338-2.858V854.6a3.817,3.817,0,0,1,3.821-3.8h1.911a3.811,3.811,0,0,1,3.821,3.78v38.006a3.808,3.808,0,0,0,3.544,3.789c.237.018.724.062,1.423.142,1.191.135,2.523.32,3.96.56a70.3,70.3,0,0,1,11.972,3.041c6.7,2.4,11.607,5.639,14.046,9.635,2.192,3.591,2.556,10.112,1.2,18.576a112.018,112.018,0,0,1-3.194,13.717c-.883,3-1.83,5.873-2.777,8.5a7.7,7.7,0,0,0-.311.917H1958.8l-33.422-41.89A9.266,9.266,0,0,1,1926.569,908.463Z" transform="translate(0 1.209)" fill="#3d58a6"/>
    <path id="Path_30" data-name="Path 30" d="M1993.34,850.429a26.011,26.011,0,1,0-37.907,28.018,3.842,3.842,0,1,0,3.685-6.742,18.309,18.309,0,1,1,17.657-.1,3.842,3.842,0,1,0,3.762,6.7,25.894,25.894,0,0,0,13.224-20.2h11.317v3.847c0,1.036.7,1.409,1.574.79L2017,855.387a1.281,1.281,0,0,0,0-2.239l-10.344-7.357c-.886-.63-1.574-.264-1.574.791v3.847Z" transform="translate(-0.873)" fill="#3d58a6"/>
  </g>
</svg>
